<svg width="159" height="172" viewBox="0 0 159 172" fill="none" xmlns="http://www.w3.org/2000/svg">
<line x1="80.5" y1="152.5" x2="80.5" y2="25.5" stroke="#FF378E" stroke-width="3" stroke-linecap="round"/>
<line x1="8.5" y1="65.5" x2="8.5" y2="106.5" stroke="#FF378E" stroke-width="3" stroke-linecap="round"/>
<line x1="1.5" y1="77.5" x2="1.5" y2="94.5" stroke="#FF378E" stroke-width="3" stroke-linecap="round"/>
<line x1="22.5" y1="53.5" x2="22.5" y2="118.5" stroke="#FF378E" stroke-width="3" stroke-linecap="round"/>
<line x1="30.5" y1="43.5" x2="30.5" y2="128.5" stroke="#FF378E" stroke-width="3" stroke-linecap="round"/>
<line x1="38.5" y1="28.5" x2="38.5" y2="143.5" stroke="#FF378E" stroke-width="3" stroke-linecap="round"/>
<line x1="47.5" y1="34.5" x2="47.5" y2="137.5" stroke="#FF378E" stroke-width="3" stroke-linecap="round"/>
<line x1="54.5" y1="22.5" x2="54.5" y2="149.5" stroke="#FF378E" stroke-width="3" stroke-linecap="round"/>
<line x1="62.5" y1="14.5" x2="62.5" y2="157.5" stroke="#FF378E" stroke-width="3" stroke-linecap="round"/>
<line x1="71.5" y1="22.5" x2="71.5" y2="149.5" stroke="#FF378E" stroke-width="3" stroke-linecap="round"/>
<line x1="80.5" y1="1.5" x2="80.5" y2="170.5" stroke="#FF378E" stroke-width="3" stroke-linecap="round"/>
<line x1="15.5" y1="71.5" x2="15.5" y2="100.5" stroke="#FF378E" stroke-width="3" stroke-linecap="round"/>
<line x1="150.5" y1="106.5" x2="150.5" y2="65.5" stroke="#FF378E" stroke-width="3" stroke-linecap="round"/>
<line x1="157.5" y1="94.5" x2="157.5" y2="77.5" stroke="#FF378E" stroke-width="3" stroke-linecap="round"/>
<line x1="136.5" y1="118.5" x2="136.5" y2="53.5" stroke="#FF378E" stroke-width="3" stroke-linecap="round"/>
<line x1="128.5" y1="128.5" x2="128.5" y2="43.5" stroke="#FF378E" stroke-width="3" stroke-linecap="round"/>
<line x1="120.5" y1="143.5" x2="120.5" y2="28.5" stroke="#FF378E" stroke-width="3" stroke-linecap="round"/>
<line x1="111.5" y1="137.5" x2="111.5" y2="34.5" stroke="#FF378E" stroke-width="3" stroke-linecap="round"/>
<line x1="104.5" y1="149.5" x2="104.5" y2="22.5" stroke="#FF378E" stroke-width="3" stroke-linecap="round"/>
<line x1="96.5" y1="157.5" x2="96.5" y2="14.5" stroke="#FF378E" stroke-width="3" stroke-linecap="round"/>
<line x1="89.5" y1="149.5" x2="89.5" y2="22.5" stroke="#FF378E" stroke-width="3" stroke-linecap="round"/>
<line x1="143.5" y1="100.5" x2="143.5" y2="71.5" stroke="#FF378E" stroke-width="3" stroke-linecap="round"/>
<circle cx="79" cy="86" r="50" fill="#D9D9D9"/>
<path d="M75.1526 82.265V100.423C75.1526 104.878 71.5076 108.5 67.0751 108.5C62.6201 108.5 58.9976 104.878 58.9976 100.423C58.9976 95.99 62.6201 92.3675 67.0751 92.3675C68.9426 92.3675 70.6301 93.02 72.0026 94.0775V83.165L75.1526 82.265Z" fill="#FF378E"/>
<path d="M99.0025 75.47V96.08C99.0025 100.535 95.38 104.157 90.925 104.157C86.4925 104.157 82.8475 100.535 82.8475 96.08C82.8475 91.6475 86.4925 88.025 90.925 88.025C92.815 88.025 94.5025 88.6775 95.875 89.7575V76.37L99.0025 75.47Z" fill="#FF378E"/>
<path opacity="0.4" d="M99.0024 70.655V75.47L72.0024 83.165V74.1875C72.0024 70.88 74.0049 68.315 77.1774 67.46L90.1824 63.905C92.8149 63.185 95.0424 63.4325 96.6174 64.6475C98.2149 65.84 99.0024 67.865 99.0024 70.655Z" fill="#FF378E"/>
</svg>
