<svg width="18" height="16" viewBox="0 0 18 16" fill="none" xmlns="http://www.w3.org/2000/svg">
<path opacity="0.4" d="M2.23768 0.099966C1.40068 0.331454 0.648085 0.983831 0.254203 1.80456L0.0291271 2.28157L0.0080263 6.35016C-0.0130745 9.27533 0.00802629 10.524 0.0642952 10.8046C0.310472 11.955 1.28814 12.895 2.45572 13.1194C2.66673 13.1615 4.03125 13.1896 5.59271 13.1896H8.36395V13.7858V14.3821H7.69576C7.0768 14.3821 7.00647 14.3961 6.85173 14.5575C6.56335 14.8381 6.61962 15.294 6.96427 15.4694C7.25264 15.6237 10.7413 15.6237 11.0297 15.4694C11.3743 15.294 11.4306 14.8381 11.1422 14.5575C10.9875 14.3961 10.9172 14.3821 10.3052 14.3821H9.63704L9.61594 13.3579C9.59484 12.3338 9.59484 12.3338 9.39789 12.1654L9.20095 11.9971H6.01473C2.46276 11.9971 2.36429 11.983 1.83676 11.5341C1.66796 11.3938 1.46398 11.1483 1.37958 10.9869C1.22484 10.6993 1.22484 10.6993 1.22484 6.59567C1.22484 2.52007 1.22484 2.49201 1.37958 2.21142C1.55542 1.88173 1.90007 1.54502 2.24471 1.36263C2.47682 1.23636 2.7863 1.22935 8.99698 1.22935C15.2077 1.22935 15.5171 1.23636 15.7492 1.36263C16.0939 1.54502 16.4385 1.88173 16.6144 2.21142C16.7691 2.49201 16.7691 2.52007 16.7691 6.59567C16.7691 10.6993 16.7691 10.6993 16.6144 10.9869C16.53 11.1483 16.326 11.3938 16.1572 11.5341C15.6508 11.969 15.4468 11.9971 12.8866 11.9971H10.6077L10.4389 12.1724C10.1927 12.4109 10.2068 12.7196 10.467 12.9862L10.671 13.1896H12.9217C14.1596 13.1896 15.3343 13.1545 15.5382 13.1194C16.6706 12.902 17.6061 12.0392 17.9015 10.9168C17.9789 10.6362 18 9.73129 18 6.59567C18 3.46006 17.9789 2.55515 17.9015 2.27456C17.6202 1.22233 16.7762 0.380558 15.7141 0.099966C15.2147 -0.0333157 2.723 -0.0333157 2.23768 0.099966Z" fill="#FF378E"/>
<path d="M6.24683 3.79677C5.83185 3.85991 5.57864 3.99319 5.25509 4.3299C4.79088 4.80691 4.78384 4.87705 4.77681 7.13582L4.76978 9.15608L4.95265 9.31041C5.19179 9.51384 5.49424 9.51384 5.73338 9.31041C5.88109 9.18414 5.93032 9.06489 5.95846 8.7843L5.99362 8.41953H6.57038H7.14714L7.1823 8.7843C7.21044 9.06489 7.25967 9.18414 7.40738 9.31041C7.64652 9.51384 7.9349 9.51384 8.18108 9.32444L8.36395 9.18414V7.15687C8.36395 4.9472 8.34988 4.86302 7.9349 4.39303C7.50585 3.89498 6.92909 3.69857 6.24683 3.79677ZM7.0135 5.1366C7.1612 5.2769 7.16824 5.34003 7.16824 6.25897V7.22701H6.57038H5.97252V6.25897C5.97252 5.34003 5.97956 5.2769 6.1343 5.14362C6.42971 4.87705 6.72512 4.87004 7.0135 5.1366Z" fill="#FF378E"/>
<path d="M9.89731 3.82484C9.57376 4.00723 9.55266 4.25275 9.57376 6.75002L9.59486 9.03684L9.76367 9.21923C9.93248 9.40161 9.93951 9.40161 11.1352 9.40161C12.1481 9.40161 12.3802 9.38057 12.6193 9.26833C12.978 9.10699 13.4493 8.59491 13.5759 8.23715C13.7095 7.86537 13.7166 5.34004 13.5829 4.96826C13.4352 4.54737 13.1257 4.18961 12.7178 3.96514C12.345 3.76171 12.3098 3.75469 11.2126 3.73365C10.3053 3.71962 10.052 3.74066 9.89731 3.82484ZM12.2817 5.14363L12.4786 5.33302V6.58868C12.4786 7.82328 12.4786 7.85134 12.3098 8.02671C12.1481 8.19507 12.0988 8.20909 11.4799 8.20909H10.8257V6.5536V4.89811L11.4588 4.92617C12.0355 4.94721 12.1059 4.96124 12.2817 5.14363Z" fill="#FF378E"/>
</svg>
