<svg width="27" height="27" viewBox="0 0 27 27" fill="none" xmlns="http://www.w3.org/2000/svg">
<path d="M17.5 13.4953L26.1792 4.81907C27.2736 3.72511 27.2736 1.91443 26.1792 0.820468C25.0849 -0.273489 23.2736 -0.273489 22.1792 0.820468L13.5 9.49668L4.82075 0.820468C3.72641 -0.273489 1.91509 -0.273489 0.820755 0.820468C-0.273585 1.91443 -0.273585 3.72511 0.820755 4.81907L9.5 13.4953L0.820755 22.1715C-0.273585 23.2655 -0.273585 25.0761 0.820755 26.1701C1.38679 26.7359 2.10377 27 2.82075 27C3.53773 27 4.25471 26.7359 4.82075 26.1701L13.5 17.4939L22.1792 26.1701C22.7453 26.7359 23.4623 27 24.1792 27C24.8962 27 25.6132 26.7359 26.1792 26.1701C27.2736 25.0761 27.2736 23.2655 26.1792 22.1715L17.5 13.4953Z" fill="#FF378E"/>
</svg>
