<svg width="20" height="20" viewBox="0 0 20 20" fill="none" xmlns="http://www.w3.org/2000/svg">
<path d="M14.1666 18.3333H5.83331C5.49165 18.3333 5.20831 18.05 5.20831 17.7083C5.20831 17.3666 5.49165 17.0833 5.83331 17.0833H14.1666C14.5083 17.0833 14.7916 17.3666 14.7916 17.7083C14.7916 18.05 14.5083 18.3333 14.1666 18.3333Z" fill="#FFD700"/>
<path d="M16.9583 4.60001L13.625 6.98335C13.1833 7.30001 12.55 7.10835 12.3583 6.60001L10.7833 2.40001C10.5167 1.67501 9.49167 1.67501 9.225 2.40001L7.64167 6.59168C7.45 7.10835 6.825 7.30001 6.38333 6.97501L3.05 4.59168C2.38333 4.12501 1.5 4.78335 1.775 5.55835L5.24167 15.2667C5.35833 15.6 5.675 15.8167 6.025 15.8167H13.9667C14.3167 15.8167 14.6333 15.5917 14.75 15.2667L18.2167 5.55835C18.5 4.78335 17.6167 4.12501 16.9583 4.60001ZM12.0833 12.2917H7.91667C7.575 12.2917 7.29167 12.0083 7.29167 11.6667C7.29167 11.325 7.575 11.0417 7.91667 11.0417H12.0833C12.425 11.0417 12.7083 11.325 12.7083 11.6667C12.7083 12.0083 12.425 12.2917 12.0833 12.2917Z" fill="#FFD700"/>
</svg>
