<svg width="24" height="24" viewBox="0 0 24 24" fill="none" xmlns="http://www.w3.org/2000/svg">
<path d="M19.5262 5.47381C17.5862 3.53381 15.6862 3.48381 13.6962 5.47381L12.4862 6.68381C12.3862 6.78381 12.3462 6.94381 12.3862 7.08381C13.1462 9.73381 15.2662 11.8538 17.9162 12.6138C17.9562 12.6238 17.9962 12.6338 18.0362 12.6338C18.1462 12.6338 18.2462 12.5938 18.3262 12.5138L19.5262 11.3038C20.5162 10.3238 20.9962 9.37381 20.9962 8.41381C21.0062 7.42381 20.5262 6.46381 19.5262 5.47381Z" fill="#292D32"/>
<path d="M16.1162 13.5238C15.8262 13.3838 15.5462 13.2438 15.2762 13.0838C15.0562 12.9538 14.8462 12.8138 14.6362 12.6638C14.4662 12.5538 14.2662 12.3938 14.0762 12.2338C14.0562 12.2238 13.9862 12.1638 13.9062 12.0838C13.5762 11.8038 13.2062 11.4438 12.8762 11.0438C12.8462 11.0238 12.7962 10.9538 12.7262 10.8638C12.6262 10.7438 12.4562 10.5438 12.3062 10.3138C12.1862 10.1638 12.0462 9.94382 11.9162 9.72382C11.7562 9.45382 11.6162 9.18382 11.4762 8.90382C11.455 8.85843 11.4345 8.81326 11.4146 8.76836C11.267 8.43504 10.8324 8.3376 10.5746 8.59535L4.84618 14.3238C4.71618 14.4538 4.59618 14.7038 4.56618 14.8738L4.02618 18.7038C3.92618 19.3838 4.11618 20.0238 4.53618 20.4538C4.89618 20.8038 5.39618 20.9938 5.93618 20.9938C6.05618 20.9938 6.17618 20.9838 6.29618 20.9638L10.1362 20.4238C10.3162 20.3938 10.5662 20.2738 10.6862 20.1438L16.4075 14.4225C16.667 14.163 16.5691 13.7175 16.2315 13.5734C16.1935 13.5572 16.1551 13.5407 16.1162 13.5238Z" fill="#292D32"/>
</svg>
