<svg width="12" height="12" viewBox="0 0 12 12" fill="none" xmlns="http://www.w3.org/2000/svg">
<path d="M10.625 4.57497C9.47 2.75997 7.78 1.71497 6 1.71497C5.11 1.71497 4.245 1.97497 3.455 2.45997C2.665 2.94997 1.955 3.66497 1.375 4.57497C0.875 5.35997 0.875 6.63497 1.375 7.41997C2.53 9.23997 4.22 10.28 6 10.28C6.89 10.28 7.755 10.02 8.545 9.53497C9.335 9.04497 10.045 8.32997 10.625 7.41997C11.125 6.63997 11.125 5.35997 10.625 4.57497ZM6 8.01997C4.88 8.01997 3.98 7.11497 3.98 5.99997C3.98 4.88497 4.88 3.97997 6 3.97997C7.12 3.97997 8.02 4.88497 8.02 5.99997C8.02 7.11497 7.12 8.01997 6 8.01997Z" fill="#FF378E"/>
<path d="M6.00001 4.56995C5.21501 4.56995 4.57501 5.20995 4.57501 5.99995C4.57501 6.78495 5.21501 7.42495 6.00001 7.42495C6.78501 7.42495 7.43001 6.78495 7.43001 5.99995C7.43001 5.21495 6.78501 4.56995 6.00001 4.56995Z" fill="#FF378E"/>
</svg>
