<svg width="17" height="17" viewBox="0 0 17 17" fill="none" xmlns="http://www.w3.org/2000/svg">
<path d="M5.12833 1.41669H3.7825C2.23125 1.41669 1.41666 2.23127 1.41666 3.77544V5.12127C1.41666 6.66544 2.23125 7.48002 3.77541 7.48002H5.12125C6.66541 7.48002 7.48 6.66544 7.48 5.12127V3.77544C7.48708 2.23127 6.6725 1.41669 5.12833 1.41669Z" fill="white"/>
<path d="M13.2246 1.41669H11.8788C10.3346 1.41669 9.52 2.23127 9.52 3.77544V5.12127C9.52 6.66544 10.3346 7.48002 11.8788 7.48002H13.2246C14.7688 7.48002 15.5833 6.66544 15.5833 5.12127V3.77544C15.5833 2.23127 14.7688 1.41669 13.2246 1.41669Z" fill="white"/>
<path d="M13.2246 9.51294H11.8788C10.3346 9.51294 9.52 10.3275 9.52 11.8717V13.2175C9.52 14.7617 10.3346 15.5763 11.8788 15.5763H13.2246C14.7688 15.5763 15.5833 14.7617 15.5833 13.2175V11.8717C15.5833 10.3275 14.7688 9.51294 13.2246 9.51294Z" fill="white"/>
<path d="M5.12833 9.51294H3.7825C2.23125 9.51294 1.41666 10.3275 1.41666 11.8717V13.2175C1.41666 14.7688 2.23125 15.5834 3.77541 15.5834H5.12125C6.66541 15.5834 7.48 14.7688 7.48 13.2246V11.8788C7.48708 10.3275 6.6725 9.51294 5.12833 9.51294Z" fill="white"/>
</svg>
