<svg width="20" height="20" viewBox="0 0 20 20" fill="none" xmlns="http://www.w3.org/2000/svg">
<path d="M16.7692 6.5625H3.23077C2.92239 6.5625 2.66666 5.9675 2.66666 5.25C2.66666 4.5325 2.92239 3.9375 3.23077 3.9375H16.7692C17.0776 3.9375 17.3333 4.5325 17.3333 5.25C17.3333 5.9675 17.0776 6.5625 16.7692 6.5625Z" fill="white"/>
<path d="M16.7692 11.8125H3.23077C2.92239 11.8125 2.66666 11.2175 2.66666 10.5C2.66666 9.7825 2.92239 9.1875 3.23077 9.1875H16.7692C17.0776 9.1875 17.3333 9.7825 17.3333 10.5C17.3333 11.2175 17.0776 11.8125 16.7692 11.8125Z" fill="white"/>
<path d="M16.7692 17.0625H3.23077C2.92239 17.0625 2.66666 16.4675 2.66666 15.75C2.66666 15.0325 2.92239 14.4375 3.23077 14.4375H16.7692C17.0776 14.4375 17.3333 15.0325 17.3333 15.75C17.3333 16.4675 17.0776 17.0625 16.7692 17.0625Z" fill="white"/>
</svg>
