<svg width="27" height="28" viewBox="0 0 27 28" fill="none" xmlns="http://www.w3.org/2000/svg">
<path d="M24.0667 7.09333L16.3867 1.72C14.2933 0.253332 11.08 0.333332 9.06667 1.89333L2.38667 7.10666C1.05333 8.14666 0 10.28 0 11.96V21.16C0 24.56 2.76 27.3333 6.16 27.3333H20.5333C23.9333 27.3333 26.6933 24.5733 26.6933 21.1733V12.1333C26.6933 10.3333 25.5333 8.12 24.0667 7.09333ZM14.3467 22C14.3467 22.5467 13.8933 23 13.3467 23C12.8 23 12.3467 22.5467 12.3467 22V18C12.3467 17.4533 12.8 17 13.3467 17C13.8933 17 14.3467 17.4533 14.3467 18V22Z" fill="white"/>
</svg>
