<svg width="32" height="32" viewBox="0 0 32 32" fill="none" xmlns="http://www.w3.org/2000/svg">
<path d="M23.72 30.3334H8.27999C4.62666 30.3334 1.66666 27.36 1.66666 23.7067V13.8267C1.66666 12.0134 2.78666 9.73338 4.22666 8.61338L11.4133 3.01338C13.5733 1.33338 17.0267 1.25338 19.2667 2.82671L27.5067 8.60005C29.0933 9.70671 30.3333 12.08 30.3333 14.0134V23.72C30.3333 27.36 27.3733 30.3334 23.72 30.3334ZM12.64 4.58671L5.45332 10.1867C4.50666 10.9334 3.66666 12.6267 3.66666 13.8267V23.7067C3.66666 26.2534 5.73332 28.3334 8.27999 28.3334H23.72C26.2667 28.3334 28.3333 26.2667 28.3333 23.72V14.0134C28.3333 12.7334 27.4133 10.96 26.36 10.24L18.12 4.46671C16.6 3.40005 14.0933 3.45338 12.64 4.58671Z" fill="#7C7C7C"/>
<path d="M16 25C15.4533 25 15 24.5467 15 24V20C15 19.4533 15.4533 19 16 19C16.5467 19 17 19.4533 17 20V24C17 24.5467 16.5467 25 16 25Z" fill="#7C7C7C"/>
</svg>
