<svg width="36" height="36" viewBox="0 0 36 36" fill="none" xmlns="http://www.w3.org/2000/svg">
<path d="M24.285 3H11.715C6.255 3 3 6.255 3 11.715V24.27C3 29.745 6.255 33 11.715 33H24.27C29.73 33 32.985 29.745 32.985 24.285V11.715C33 6.255 29.745 3 24.285 3ZM12.27 25.155C12.24 25.155 12.195 25.155 12.165 25.155C10.71 25.02 9.345 24.345 8.325 23.265C5.925 20.745 5.925 16.65 8.325 14.13L11.61 10.68C12.78 9.45 14.355 8.76 16.035 8.76C17.715 8.76 19.29 9.435 20.46 10.68C22.86 13.2 22.86 17.295 20.46 19.815L18.825 21.54C18.39 21.99 17.685 22.005 17.235 21.585C16.785 21.15 16.77 20.445 17.19 19.995L18.825 18.27C20.415 16.605 20.415 13.89 18.825 12.24C17.34 10.68 14.73 10.68 13.23 12.24L9.945 15.69C8.355 17.355 8.355 20.07 9.945 21.72C10.59 22.41 11.46 22.83 12.375 22.92C12.99 22.98 13.44 23.535 13.38 24.15C13.335 24.72 12.84 25.155 12.27 25.155ZM27.675 21.885L24.39 25.335C23.22 26.565 21.645 27.255 19.965 27.255C18.285 27.255 16.71 26.58 15.54 25.335C13.14 22.815 13.14 18.72 15.54 16.2L17.175 14.475C17.61 14.025 18.315 14.01 18.765 14.43C19.215 14.865 19.23 15.57 18.81 16.02L17.175 17.745C15.585 19.41 15.585 22.125 17.175 23.775C18.66 25.335 21.27 25.35 22.77 23.775L26.055 20.325C27.645 18.66 27.645 15.945 26.055 14.295C25.41 13.605 24.54 13.185 23.625 13.095C23.01 13.035 22.56 12.48 22.62 11.865C22.68 11.25 23.22 10.785 23.85 10.86C25.305 11.01 26.67 11.67 27.69 12.75C30.075 15.255 30.075 19.365 27.675 21.885Z" fill="#FF378E"/>
</svg>
