<svg width="26" height="34" viewBox="0 0 26 34" fill="none" xmlns="http://www.w3.org/2000/svg">
<path d="M17.5218 2.26087L12.4348 1.13043L6.21742 3.3913L2.2609 7.91304L1.69568 14.6957L4.52177 21.4783L9.60872 24.3043H14.6957L18.087 23.1739L23.1739 19.2174L24.8696 12.4348L22.6087 6.21739L17.5218 2.26087Z" fill="#A0913C"/>
<path d="M12.4145 26.0672L11.4472 25.4053L10.3526 25.8126C10.2253 25.8635 10.098 25.889 9.97072 25.889C9.66524 25.889 9.35977 25.7617 9.15612 25.5071L8.39243 24.6162L7.22145 24.7435C6.78869 24.7944 6.33048 24.5398 6.15229 24.158L5.64316 23.1143C5.10858 25.889 4.47218 28.6383 3.73395 31.3366C5.15949 31.0311 6.58504 30.6747 8.01059 30.3184C9.07975 31.3112 10.1744 32.3294 11.2181 33.3731C11.8545 31.0057 12.4145 28.6383 12.9236 26.2454C12.7454 26.2199 12.5673 26.169 12.4145 26.0672Z" fill="#FFD700"/>
<path d="M19.8732 24.1325C19.6695 24.5398 19.2368 24.7689 18.804 24.718L17.633 24.5907L16.8693 25.4817C16.6657 25.7108 16.3602 25.8635 16.0547 25.8635C15.9275 25.8635 15.8002 25.8381 15.6729 25.7872L14.5783 25.3799L13.6109 26.0417C13.4327 26.169 13.2546 26.2199 13.0509 26.2199C13.5346 28.6128 14.1201 30.9802 14.7565 33.3476C15.8256 32.3039 16.8948 31.2857 17.9639 30.2929C19.3895 30.6493 20.815 31.0057 22.2406 31.3111C21.5024 28.6128 20.866 25.889 20.3314 23.1397L19.8732 24.1325Z" fill="#FFD700"/>
<path d="M25.1935 12.1681L25.7536 10.9462C25.8808 10.6661 25.8299 10.3098 25.6008 10.0807L24.6335 9.13878L24.8626 7.81506C24.9135 7.50958 24.7608 7.17865 24.4807 7.02591L23.3098 6.36405L23.2079 5.04033C23.1825 4.73485 22.9534 4.45484 22.6479 4.37847L21.3496 4.02208L20.9169 2.74927C20.8151 2.4438 20.535 2.24015 20.2041 2.24015L18.8804 2.21469L18.1422 1.09462C17.9894 0.890968 17.7603 0.763686 17.5058 0.763686C17.4548 0.763686 17.3785 0.763688 17.3276 0.789144L16.0293 1.09462L15.0365 0.20365C14.8838 0.0763694 14.7056 0 14.5274 0C14.4001 0 14.2983 0.025457 14.171 0.0763694L13 0.712774L11.829 0.0763694C11.7272 0.025457 11.5999 0 11.4726 0C11.2944 0 11.1162 0.0763694 10.9635 0.20365L9.97071 1.09462L8.67245 0.789144C8.62153 0.763688 8.54517 0.763686 8.49425 0.763686C8.23969 0.763686 8.01058 0.890968 7.85785 1.09462L7.11962 2.21469L5.7959 2.24015C5.46497 2.24015 5.18495 2.4438 5.08312 2.74927L4.65037 4.02208L3.3521 4.37847C3.04663 4.45484 2.81752 4.73485 2.79207 5.04033L2.69024 6.36405L1.51926 7.02591C1.23924 7.17865 1.0865 7.50958 1.13741 7.81506L1.36652 9.13878L0.39918 10.0807C0.170074 10.3098 0.0937078 10.6407 0.246445 10.9462L0.806481 12.1681L0.119164 13.3136C-0.0590294 13.5936 -0.033574 13.9245 0.170076 14.1791L1.01013 15.2228L0.628288 16.4956C0.526463 16.8011 0.653742 17.132 0.908304 17.3102L1.97747 18.1248L1.92655 19.4485C1.9011 19.754 2.10475 20.0595 2.38476 20.1868L3.60666 20.6959L3.88668 21.9942C3.96305 22.2996 4.19216 22.5542 4.52309 22.5797L5.84681 22.7578L6.4323 23.9543C6.55958 24.2088 6.81414 24.387 7.11962 24.387C7.14508 24.387 7.17053 24.387 7.19599 24.387L8.51971 24.2343L9.38522 25.2526C9.53796 25.4307 9.74161 25.5071 9.97071 25.5071C10.0725 25.5071 10.1489 25.4817 10.2253 25.4562L11.4726 24.998L12.5672 25.7617C12.6945 25.8635 12.8473 25.889 13 25.889C13.1527 25.889 13.3055 25.838 13.4328 25.7617L14.5274 24.998L15.7747 25.4562C15.8511 25.4817 15.9529 25.5071 16.0293 25.5071C16.2584 25.5071 16.462 25.4053 16.6148 25.2526L17.4803 24.2343L18.804 24.387C18.8295 24.387 18.8549 24.387 18.8804 24.387C19.1604 24.387 19.4404 24.2343 19.5677 23.9543L20.1532 22.7578L21.4769 22.5797C21.7824 22.5287 22.037 22.2996 22.1133 21.9942L22.3933 20.6959L23.6152 20.1868C23.9207 20.0595 24.0989 19.7795 24.0734 19.4485L24.0225 18.1248L25.0917 17.3102C25.3463 17.1066 25.4481 16.8011 25.3717 16.4956L24.9899 15.2228L25.8299 14.1791C26.0336 13.9245 26.059 13.5936 25.8808 13.3136L25.1935 12.1681ZM13.0255 23.9797C6.96688 23.9797 2.02838 19.0412 2.02838 12.9827C2.02838 6.92409 6.96688 1.98558 13.0255 1.98558C19.084 1.98558 24.0225 6.92409 24.0225 12.9827C24.0225 19.0412 19.084 23.9797 13.0255 23.9797Z" fill="#FFD700"/>
<path d="M13.0255 21.3577C17.6331 21.3577 21.4006 17.6157 21.4006 12.9826C21.4006 8.37506 17.6585 4.60754 13.0255 4.60754C8.41791 4.60754 4.65039 8.3496 4.65039 12.9826C4.65039 17.5902 8.41791 21.3577 13.0255 21.3577ZM20.7896 12.9826C20.7896 17.2593 17.3021 20.7468 13.0255 20.7468C8.74884 20.7468 5.26134 17.2593 5.26134 12.9826C5.26134 8.70599 8.74884 5.21849 13.0255 5.21849C17.3021 5.21849 20.7896 8.70599 20.7896 12.9826Z" fill="#FFD700"/>
<path d="M14.4765 5.88046C14.9347 5.98229 15.4693 6.16048 16.0548 6.4405C16.6402 6.72052 17.2512 7.12782 17.8367 7.6624C18.4222 8.19698 18.9568 8.88429 19.3641 9.69889C19.7714 10.5135 20.0514 11.4299 20.1023 12.4227C20.1787 13.39 20.0514 14.4337 19.695 15.4011C19.3386 16.3684 18.7786 17.2594 18.0403 17.9976C17.3021 18.7358 16.4111 19.3213 15.4438 19.6523C14.4765 20.0087 13.4582 20.1359 12.4654 20.0596C11.4981 19.9832 10.5562 19.7286 9.74162 19.3213C8.92702 18.914 8.23971 18.3795 7.70513 17.794C7.17055 17.2085 6.76325 16.5975 6.48323 16.012C6.20321 15.4265 6.02502 14.892 5.92319 14.4337C5.82137 13.9755 5.79591 13.6191 5.77045 13.3646C5.745 13.11 5.745 12.9827 5.745 12.9827C5.745 12.9827 5.745 13.11 5.745 13.3646C5.745 13.6191 5.77045 13.9755 5.84682 14.4592C5.92319 14.9174 6.07593 15.4775 6.35595 16.0884C6.61051 16.6994 7.01781 17.3358 7.55239 17.9467C8.08697 18.5577 8.77429 19.1177 9.61434 19.5759C10.4289 20.0087 11.3963 20.3141 12.44 20.416C13.4582 20.4923 14.5528 20.3905 15.5711 20.0087C16.5893 19.6523 17.5312 19.0413 18.3204 18.2776C19.084 17.4885 19.695 16.5466 20.0514 15.5284C20.4078 14.5101 20.535 13.441 20.4587 12.3973C20.3823 11.379 20.0768 10.4117 19.6186 9.57161C19.1859 8.73156 18.6004 8.04424 17.9894 7.50966C17.3785 6.97508 16.7421 6.56778 16.1311 6.31322C15.5202 6.05866 14.9601 5.90592 14.5019 5.80409C14.0437 5.72773 13.6619 5.70227 13.4073 5.70227C13.1528 5.70227 13.0255 5.70227 13.0255 5.70227C13.0255 5.70227 13.1528 5.70227 13.4073 5.72772C13.6619 5.75318 14.0183 5.77864 14.4765 5.88046Z" fill="#FFD700"/>
<path d="M23.7171 12.1172C23.5898 10.6407 23.1571 9.2406 22.5207 8.04416C21.8843 6.84772 21.0697 5.85492 20.1787 5.06578C19.2877 4.27664 18.3713 3.7166 17.5058 3.33476C16.6403 2.95292 15.8257 2.72381 15.1638 2.59653C14.502 2.46925 13.9674 2.44379 13.5855 2.41833C13.2292 2.41833 13.0255 2.41833 13.0255 2.41833C13.0255 2.41833 13.2292 2.41834 13.5855 2.44379C13.9419 2.46925 14.4765 2.52016 15.1384 2.6729C15.8002 2.82563 16.5894 3.05474 17.4294 3.46204C18.2695 3.86934 19.1859 4.45483 20.026 5.21852C20.866 6.00766 21.6552 7.00045 22.2661 8.17144C22.8771 9.34242 23.2589 10.6916 23.3607 12.1426C23.4626 13.5682 23.2844 15.0701 22.7752 16.4956C22.2661 17.9212 21.4261 19.2194 20.3314 20.314C19.2623 21.3832 17.9386 22.2487 16.513 22.7578C15.0875 23.267 13.5855 23.4452 12.16 23.3433C10.7345 23.2415 9.38527 22.8342 8.18883 22.2487C7.01785 21.6632 6.02505 20.8486 5.23591 20.0086C4.44677 19.1431 3.88674 18.2521 3.47944 17.412C3.07214 16.572 2.81757 15.7828 2.69029 15.121C2.53755 14.4591 2.48664 13.9245 2.46119 13.5682C2.43573 13.2118 2.43573 13.0081 2.43573 13.0081C2.43573 13.0081 2.43573 13.2118 2.43573 13.5682C2.46119 13.9245 2.48665 14.4591 2.61393 15.1464C2.74121 15.8083 2.97031 16.6229 3.35215 17.4884C3.734 18.3539 4.31949 19.2958 5.08318 20.1613C5.87232 21.0268 6.86511 21.8669 8.06155 22.5033C9.25799 23.1397 10.6581 23.5724 12.1345 23.6997C13.611 23.827 15.1638 23.6488 16.6148 23.1142C18.0913 22.6051 19.4405 21.7396 20.5605 20.6195C21.6806 19.4994 22.5461 18.1248 23.0553 16.6738C23.6407 15.1464 23.8189 13.5936 23.7171 12.1172Z" fill="#FFD700"/>
</svg>
