<svg width="28" height="28" viewBox="0 0 28 28" fill="none" xmlns="http://www.w3.org/2000/svg">
<path d="M24.7916 21.5483L22.8666 22.0033C22.435 22.1083 22.0966 22.435 22.0033 22.8666L21.595 24.5816C21.3733 25.515 20.1833 25.8066 19.565 25.0716L16.0766 21.0583C15.7966 20.7316 15.9483 20.2183 16.3683 20.1133C18.4333 19.6116 20.2883 18.4566 21.6533 16.8116C21.875 16.5433 22.2716 16.5083 22.5166 16.7533L25.1066 19.3433C25.9933 20.23 25.6783 21.3383 24.7916 21.5483Z" fill="white"/>
<path d="M3.15001 21.5483L5.07501 22.0033C5.50667 22.1083 5.84501 22.435 5.93834 22.8666L6.34667 24.5816C6.56834 25.515 7.75834 25.8066 8.37667 25.0716L11.865 21.0583C12.145 20.7316 11.9933 20.2183 11.5733 20.1133C9.50834 19.6116 7.65334 18.4566 6.28834 16.8116C6.06667 16.5433 5.67001 16.5083 5.42501 16.7533L2.83501 19.3433C1.94834 20.23 2.26334 21.3383 3.15001 21.5483Z" fill="white"/>
<path d="M14 2.33325C9.48498 2.33325 5.83331 5.98492 5.83331 10.4999C5.83331 12.1916 6.33498 13.7433 7.19831 15.0383C8.45831 16.9049 10.4533 18.2233 12.775 18.5616C13.1716 18.6316 13.58 18.6666 14 18.6666C14.42 18.6666 14.8283 18.6316 15.225 18.5616C17.5466 18.2233 19.5416 16.9049 20.8016 15.0383C21.665 13.7433 22.1666 12.1916 22.1666 10.4999C22.1666 5.98492 18.515 2.33325 14 2.33325ZM17.57 10.2433L16.6016 11.2116C16.4383 11.3749 16.345 11.6899 16.4033 11.9233L16.6833 13.1249C16.905 14.0699 16.4033 14.4433 15.5633 13.9416L14.3966 13.2533C14.1866 13.1249 13.8366 13.1249 13.6266 13.2533L12.46 13.9416C11.62 14.4316 11.1183 14.0699 11.34 13.1249L11.62 11.9233C11.6666 11.7016 11.585 11.3749 11.4216 11.2116L10.43 10.2433C9.85831 9.67159 10.045 9.09992 10.8383 8.97159L12.0866 8.76159C12.2966 8.72659 12.5416 8.53992 12.635 8.35325L13.3233 6.97659C13.6966 6.22992 14.3033 6.22992 14.6766 6.97659L15.365 8.35325C15.4583 8.53992 15.7033 8.72659 15.925 8.76159L17.1733 8.97159C17.955 9.09992 18.1416 9.67159 17.57 10.2433Z" fill="white"/>
</svg>
