<svg width="32" height="32" viewBox="0 0 32 32" fill="none" xmlns="http://www.w3.org/2000/svg">
<path d="M24 7H8C7.45333 7 7 6.54667 7 6C7 5.45333 7.45333 5 8 5H24C24.5467 5 25 5.45333 25 6C25 6.54667 24.5467 7 24 7Z" fill="white"/>
<path d="M20 3.66675H12C11.4533 3.66675 11 3.21341 11 2.66675C11 2.12008 11.4533 1.66675 12 1.66675H20C20.5467 1.66675 21 2.12008 21 2.66675C21 3.21341 20.5467 3.66675 20 3.66675Z" fill="white"/>
<path d="M18.5467 21.6133C18.0933 21.6133 17.72 21.9866 17.72 22.4399C17.72 22.8933 18.0933 23.2666 18.5467 23.2666C19 23.2666 19.3733 22.8933 19.3733 22.4399C19.3733 21.9866 19 21.6133 18.5467 21.6133Z" fill="white"/>
<path d="M12.68 23.6534C12.68 23.2001 12.3067 22.8401 11.8533 22.8401C11.4 22.8401 11.0267 23.2134 11.0267 23.6668C11.0267 24.1201 11.4 24.4934 11.8533 24.4934C12.3067 24.4801 12.68 24.1068 12.68 23.6534Z" fill="white"/>
<path d="M24 9.33325H8C5.06667 9.33325 2.66667 11.7333 2.66667 14.6666V23.9999C2.66667 26.9333 5.06667 29.3333 8 29.3333H24C26.9333 29.3333 29.3333 26.9333 29.3333 23.9999V14.6666C29.3333 11.7333 26.9333 9.33325 24 9.33325ZM21.3733 16.6133V22.4399C21.3733 22.4666 21.36 22.4799 21.36 22.5066C21.32 24.0266 20.08 25.2666 18.5467 25.2666C16.9867 25.2666 15.72 23.9999 15.72 22.4399C15.72 20.8799 16.9867 19.6133 18.5467 19.6133C18.84 19.6133 19.1067 19.6666 19.3733 19.7466V17.9199L14.68 19.1999V23.6399V23.6533C14.68 25.2133 13.4133 26.4799 11.8533 26.4799C10.2933 26.4799 9.02667 25.2133 9.02667 23.6533C9.02667 22.0933 10.2933 20.8266 11.8533 20.8266C12.1467 20.8266 12.4133 20.8799 12.68 20.9599V18.4266V16.2933C12.68 15.1066 13.4133 14.1466 14.5467 13.8533L18.1867 12.8533C19.36 12.5466 20.08 12.8533 20.4933 13.1733C20.8933 13.4799 21.3733 14.1066 21.3733 15.2933V16.6133Z" fill="white"/>
</svg>
