<svg width="32" height="32" viewBox="0 0 32 32" fill="none" xmlns="http://www.w3.org/2000/svg">
<path d="M29.3334 17.3333V22.6666C29.3334 27.3333 26.6667 29.3333 22.6667 29.3333H9.33335C5.33335 29.3333 2.66669 27.3333 2.66669 22.6666V17.3333C2.66669 13.8 4.20002 11.8 6.66669 11.04C7.46669 10.7867 8.36002 10.6666 9.33335 10.6666H22.6667C23.64 10.6666 24.5334 10.7867 25.3334 11.04C27.8 11.8 29.3334 13.8 29.3334 17.3333Z" stroke="#7C7C7C" stroke-width="1.5" stroke-miterlimit="10" stroke-linecap="round" stroke-linejoin="round"/>
<path d="M21.3334 4.67997V6.66663H10.6667V4.67997C10.6667 3.57331 11.5734 2.66663 12.68 2.66663H19.32C20.4267 2.66663 21.3334 3.57331 21.3334 4.67997Z" stroke="#7C7C7C" stroke-width="1.5" stroke-miterlimit="10" stroke-linecap="round" stroke-linejoin="round"/>
<path d="M12.0933 25.9333C13.0653 25.9333 13.8533 25.1454 13.8533 24.1733C13.8533 23.2013 13.0653 22.4133 12.0933 22.4133C11.1213 22.4133 10.3333 23.2013 10.3333 24.1733C10.3333 25.1454 11.1213 25.9333 12.0933 25.9333Z" stroke="#7C7C7C" stroke-width="1.5" stroke-linecap="round" stroke-linejoin="round"/>
<path d="M20.3333 22.9999V16.1066C20.3333 14.64 19.4133 14.4266 18.48 14.6933L14.9467 15.6533C14.3067 15.8266 13.8667 16.3332 13.8667 17.0666V18.2932V19.12V24.1733" stroke="#7C7C7C" stroke-width="1.5" stroke-linecap="round" stroke-linejoin="round"/>
<path d="M18.5733 24.76C19.5453 24.76 20.3333 23.972 20.3333 23C20.3333 22.028 19.5453 21.24 18.5733 21.24C17.6013 21.24 16.8133 22.028 16.8133 23C16.8133 23.972 17.6013 24.76 18.5733 24.76Z" stroke="#7C7C7C" stroke-width="1.5" stroke-linecap="round" stroke-linejoin="round"/>
<path d="M13.8667 19.1332L20.3333 17.3733" stroke="#7C7C7C" stroke-width="1.5" stroke-linecap="round" stroke-linejoin="round"/>
</svg>
