<svg width="24" height="24" viewBox="0 0 24 24" fill="none" xmlns="http://www.w3.org/2000/svg">
<path d="M22 15.6601L22 8.34005C22 6.84005 20.37 5.90005 19.07 6.65005L15.9 8.48005L12.73 10.3101L12.24 10.5901L12.24 13.4101L12.73 13.6901L15.9 15.5201L19.07 17.3501C20.37 18.1001 22 17.1601 22 15.6601Z" fill="white"/>
<path d="M12.24 15.6601L12.24 8.34005C12.24 6.84005 10.61 5.90005 9.31999 6.65005L6.13999 8.48005L2.96999 10.3101C1.67999 11.0601 1.67999 12.9401 2.96999 13.6901L6.13999 15.5201L9.31999 17.3501C10.61 18.1001 12.24 17.1601 12.24 15.6601Z" fill="white"/>
</svg>
