<svg width="24" height="24" viewBox="0 0 24 24" fill="none" xmlns="http://www.w3.org/2000/svg">
<path d="M12 3.48006C11.92 3.48006 11.84 3.49006 11.76 3.49006L12.58 2.47006C12.84 2.15006 12.79 1.67006 12.46 1.42006C12.13 1.17006 11.67 1.21006 11.41 1.54006L9.43998 4.00006C9.42998 4.01006 9.42998 4.02006 9.41998 4.04006C9.38998 4.08006 9.36998 4.13006 9.34998 4.17006C9.32998 4.22006 9.30998 4.26006 9.29998 4.30006C9.28998 4.35006 9.28998 4.39006 9.28998 4.44006C9.28998 4.49006 9.28998 4.54006 9.28998 4.59006C9.28998 4.61006 9.28998 4.62006 9.28998 4.64006C9.29998 4.67006 9.31998 4.69006 9.32998 4.72006C9.34998 4.77006 9.36998 4.81006 9.38998 4.86006C9.41998 4.90006 9.44998 4.94006 9.48998 4.97006C9.50998 5.00006 9.51998 5.03006 9.54998 5.05006C9.56998 5.06006 9.57998 5.07006 9.59998 5.08006C9.62998 5.10006 9.64998 5.11006 9.67998 5.12006C9.72998 5.15006 9.78998 5.17006 9.84998 5.18006C9.87998 5.20006 9.90998 5.20006 9.93998 5.20006C9.96998 5.20006 9.98998 5.21006 10.02 5.21006C10.05 5.21006 10.07 5.20006 10.09 5.19006C10.12 5.19006 10.15 5.20006 10.18 5.19006C10.82 5.04006 11.42 4.97006 11.99 4.97006C16.48 4.97006 20.13 8.62006 20.13 13.1101C20.13 17.6001 16.48 21.2501 11.99 21.2501C7.49998 21.2501 3.84998 17.6001 3.84998 13.1101C3.84998 11.3701 4.41998 9.69006 5.49998 8.25006C5.74998 7.92006 5.67998 7.45006 5.34998 7.20006C5.01998 6.95006 4.54998 7.02006 4.29998 7.35006C3.01998 9.05006 2.34998 11.0401 2.34998 13.1101C2.34998 18.4201 6.66997 22.7501 11.99 22.7501C17.31 22.7501 21.63 18.4301 21.63 13.1101C21.63 7.79006 17.31 3.48006 12 3.48006Z" fill="#292D32"/>
</svg>
