<svg width="28" height="28" viewBox="0 0 28 28" fill="none" xmlns="http://www.w3.org/2000/svg">
<g clip-path="url(#clip0_19_566)">
<path d="M21 18.7599C20.1133 18.7599 19.32 19.1099 18.7133 19.6583L10.395 14.8166C10.4533 14.5483 10.5 14.2799 10.5 13.9999C10.5 13.7199 10.4533 13.4516 10.395 13.1833L18.62 8.38825C19.25 8.97159 20.0783 9.33325 21 9.33325C22.9367 9.33325 24.5 7.76992 24.5 5.83325C24.5 3.89659 22.9367 2.33325 21 2.33325C19.0633 2.33325 17.5 3.89659 17.5 5.83325C17.5 6.11325 17.5467 6.38159 17.605 6.64992L9.38 11.4449C8.75 10.8616 7.92167 10.4999 7 10.4999C5.06333 10.4999 3.5 12.0633 3.5 13.9999C3.5 15.9366 5.06333 17.4999 7 17.4999C7.92167 17.4999 8.75 17.1383 9.38 16.5549L17.6867 21.4083C17.6283 21.6533 17.5933 21.9099 17.5933 22.1666C17.5933 24.0449 19.1217 25.5733 21 25.5733C22.8783 25.5733 24.4067 24.0449 24.4067 22.1666C24.4067 20.2883 22.8783 18.7599 21 18.7599ZM21 4.66659C21.6417 4.66659 22.1667 5.19159 22.1667 5.83325C22.1667 6.47492 21.6417 6.99992 21 6.99992C20.3583 6.99992 19.8333 6.47492 19.8333 5.83325C19.8333 5.19159 20.3583 4.66659 21 4.66659ZM7 15.1666C6.35833 15.1666 5.83333 14.6416 5.83333 13.9999C5.83333 13.3583 6.35833 12.8333 7 12.8333C7.64167 12.8333 8.16667 13.3583 8.16667 13.9999C8.16667 14.6416 7.64167 15.1666 7 15.1666ZM21 23.3566C20.3583 23.3566 19.8333 22.8316 19.8333 22.1899C19.8333 21.5483 20.3583 21.0233 21 21.0233C21.6417 21.0233 22.1667 21.5483 22.1667 22.1899C22.1667 22.8316 21.6417 23.3566 21 23.3566Z" fill="#FF378E"/>
</g>
<defs>
<clipPath id="clip0_19_566">
<rect width="28" height="28" fill="white"/>
</clipPath>
</defs>
</svg>
