<svg width="35" height="35" viewBox="0 0 35 35" fill="none" xmlns="http://www.w3.org/2000/svg">
<path d="M31.7187 26.2209C31.7187 26.1917 31.7042 26.1625 31.7042 26.1334C31.6896 26.0167 31.675 25.9 31.6312 25.7979C31.5729 25.6667 31.5 25.5646 31.4125 25.4625C31.4125 25.4625 31.4125 25.4479 31.3979 25.4479C31.2958 25.3459 31.1792 25.2729 31.0479 25.2146C30.9167 25.1563 30.7708 25.1271 30.625 25.1271L23.8146 25.1563C23.8146 25.1563 23.8146 25.1563 23.8 25.1563C22.925 25.1563 22.0792 24.7479 21.5542 24.0479L19.775 21.7584C19.4104 21.2771 18.725 21.1896 18.2437 21.5688C17.7625 21.9479 17.675 22.6188 18.0542 23.1L19.8333 25.3896C20.7812 26.6146 22.2687 27.3438 23.8146 27.3438H23.8292L27.9854 27.3292L26.95 28.3646C26.5271 28.7875 26.5271 29.4875 26.95 29.9104C27.1687 30.1292 27.4458 30.2313 27.7229 30.2313C28 30.2313 28.2771 30.1292 28.4958 29.9104L31.4125 26.9938C31.5146 26.8917 31.5875 26.775 31.6458 26.6438C31.6896 26.4979 31.7187 26.3521 31.7187 26.2209Z" fill="#FF378E"/>
<path d="M12.2792 9.75625C11.3312 8.44375 9.81458 7.67084 8.19583 7.67084C8.18125 7.67084 8.18125 7.67084 8.16667 7.67084L4.375 7.68542C3.77708 7.68542 3.28125 8.18125 3.28125 8.77917C3.28125 9.37709 3.77708 9.87292 4.375 9.87292L8.18125 9.85834H8.19583C9.11458 9.85834 9.975 10.2958 10.5 11.0396L12.075 13.2271C12.2937 13.5188 12.6292 13.6792 12.9646 13.6792C13.1833 13.6792 13.4167 13.6063 13.6062 13.475C14.1021 13.1104 14.2042 12.425 13.8542 11.9438L12.2792 9.75625Z" fill="#FF378E"/>
<path d="M31.7042 8.86667C31.7042 8.83751 31.7188 8.80834 31.7188 8.79376C31.7188 8.64793 31.6896 8.50209 31.6313 8.37084C31.5729 8.23959 31.5 8.12292 31.3979 8.02084L28.4813 5.10417C28.0583 4.68126 27.3583 4.68126 26.9354 5.10417C26.5125 5.52709 26.5125 6.22709 26.9354 6.65001L27.9708 7.68542L23.9896 7.67084C23.975 7.67084 23.975 7.67084 23.9604 7.67084C22.2833 7.67084 20.7083 8.50209 19.775 9.91668L10.4563 23.8875C9.93125 24.675 9.04167 25.1563 8.09375 25.1563H8.07917L4.375 25.1271C3.77708 25.1271 3.28125 25.6083 3.28125 26.2208C3.28125 26.8188 3.7625 27.3146 4.375 27.3146L8.09375 27.3292C8.10833 27.3292 8.10833 27.3292 8.12292 27.3292C9.81458 27.3292 11.375 26.4979 12.3083 25.0833L21.6271 11.1125C22.1521 10.325 23.0417 9.84376 23.9896 9.84376H24.0042L30.625 9.87292C30.7708 9.87292 30.9021 9.84376 31.0479 9.78543C31.1792 9.72709 31.2958 9.65418 31.3979 9.55209C31.3979 9.55209 31.3979 9.53751 31.4125 9.53751C31.5 9.43542 31.5875 9.33334 31.6313 9.20209C31.675 9.10001 31.6896 8.98334 31.7042 8.86667Z" fill="#FF378E"/>
</svg>
