<svg width="36" height="36" viewBox="0 0 36 36" fill="none" xmlns="http://www.w3.org/2000/svg">
<path d="M25.5 3H10.5C6.36 3 3 6.345 3 10.47V19.44V20.94C3 25.065 6.36 28.41 10.5 28.41H12.75C13.155 28.41 13.695 28.68 13.95 29.01L16.2 31.995C17.19 33.315 18.81 33.315 19.8 31.995L22.05 29.01C22.335 28.635 22.785 28.41 23.25 28.41H25.5C29.64 28.41 33 25.065 33 20.94V10.47C33 6.345 29.64 3 25.5 3ZM12 18C11.16 18 10.5 17.325 10.5 16.5C10.5 15.675 11.175 15 12 15C12.825 15 13.5 15.675 13.5 16.5C13.5 17.325 12.84 18 12 18ZM18 18C17.16 18 16.5 17.325 16.5 16.5C16.5 15.675 17.175 15 18 15C18.825 15 19.5 15.675 19.5 16.5C19.5 17.325 18.84 18 18 18ZM24 18C23.16 18 22.5 17.325 22.5 16.5C22.5 15.675 23.175 15 24 15C24.825 15 25.5 15.675 25.5 16.5C25.5 17.325 24.84 18 24 18Z" fill="#FF378E"/>
</svg>
