<svg width="36" height="36" viewBox="0 0 36 36" fill="none" xmlns="http://www.w3.org/2000/svg">
<g clip-path="url(#clip0_18_1824)">
<path d="M36 6.83557C34.6755 7.42357 33.252 7.81957 31.758 7.99807C33.2835 7.08457 34.455 5.63707 35.0055 3.91207C33.579 4.75807 31.998 5.37307 30.315 5.70457C28.9695 4.26907 27.048 3.37207 24.924 3.37207C20.1555 3.37207 16.6515 7.82107 17.7285 12.4396C11.592 12.1321 6.15 9.19207 2.5065 4.72357C0.5715 8.04307 1.503 12.3856 4.791 14.5846C3.582 14.5456 2.442 14.2141 1.4475 13.6606C1.3665 17.0821 3.819 20.2831 7.371 20.9956C6.3315 21.2776 5.193 21.3436 4.035 21.1216C4.974 24.0556 7.701 26.1901 10.935 26.2501C7.83 28.6846 3.918 29.7721 0 29.3101C3.2685 31.4056 7.152 32.6281 11.322 32.6281C25.035 32.6281 32.7825 21.0466 32.3145 10.6591C33.7575 9.61657 35.01 8.31607 36 6.83557Z" fill="#FF378E"/>
</g>
<defs>
<clipPath id="clip0_18_1824">
<rect width="36" height="36" fill="white"/>
</clipPath>
</defs>
</svg>
